<mxfile host="app.diagrams.net" modified="2023-12-06T00:45:06.602Z" agent="Mozilla/5.0 (Windows NT 10.0; Win64; x64) AppleWebKit/537.36 (KHTML, like Gecko) Chrome/119.0.0.0 Safari/537.36" version="22.1.5" etag="vWmVfVDLRzB0Wq6LtpEw" type="github">
  <diagram name="PÃ¡gina-1" id="o9i7GX0Vc834P53hmA-G">
    <mxGraphModel>
      <root>
        <mxCell id="0" />
        <mxCell id="1" parent="0" />
      </root>
    </mxGraphModel>
  </diagram>
</mxfile>
